<?xml version="1.0" encoding="UTF-8" standalone="no"?><svg xmlns="http://www.w3.org/2000/svg" xmlns:xlink="http://www.w3.org/1999/xlink" data-name="Layer 1" fill="#000000" height="200" preserveAspectRatio="xMidYMid meet" version="1" viewBox="0.0 0.0 200.0 200.0" width="200" zoomAndPan="magnify"><g id="change1_1"><path d="M118.38,102.8c0,10.15-8.23,18.37-18.37,18.37s-18.38-8.23-18.38-18.37,8.23-18.37,18.38-18.37,18.37,8.23,18.37,18.37Zm26.5-22.28c.27,5.81,.32,7.56,.32,22.28s-.06,16.46-.32,22.27c-.24,5.37-1.14,8.29-1.9,10.24-1,2.57-2.19,4.41-4.12,6.34-1.93,1.93-3.77,3.12-6.34,4.12-1.94,.76-4.86,1.65-10.24,1.9-5.81,.26-7.56,.32-22.28,.32s-16.46-.06-22.28-.32c-5.37-.25-8.29-1.14-10.24-1.9-2.57-1-4.41-2.19-6.34-4.12-1.93-1.93-3.12-3.77-4.12-6.34-.75-1.94-1.65-4.86-1.9-10.24-.26-5.81-.32-7.56-.32-22.27s.06-16.46,.32-22.28c.25-5.37,1.14-8.29,1.9-10.24,1-2.57,2.19-4.41,4.12-6.34,1.93-1.93,3.77-3.12,6.34-4.12,1.94-.75,4.86-1.65,10.24-1.9,5.81-.27,7.56-.32,22.28-.32s16.46,.06,22.28,.32c5.37,.25,8.29,1.14,10.24,1.9,2.57,1,4.41,2.19,6.34,4.12,1.93,1.93,3.12,3.77,4.12,6.34,.76,1.94,1.65,4.86,1.9,10.24Zm-16.56,22.28c0-15.63-12.67-28.31-28.31-28.31s-28.31,12.67-28.31,28.31,12.67,28.31,28.31,28.31,28.31-12.67,28.31-28.31Zm7.73-29.43c0-3.65-2.96-6.61-6.62-6.61s-6.61,2.96-6.61,6.61,2.96,6.62,6.61,6.62,6.62-2.96,6.62-6.62Zm63.96,26.63c0,55.23-44.77,100-100,100S0,155.23,0,100,44.77,0,100,0s100,44.77,100,100Zm-44.87,2.8c0-14.97-.06-16.85-.33-22.73-.27-5.87-1.2-9.87-2.56-13.38-1.41-3.62-3.29-6.7-6.36-9.76s-6.14-4.95-9.76-6.36c-3.51-1.36-7.51-2.29-13.38-2.56-5.88-.27-7.76-.33-22.73-.33s-16.85,.06-22.73,.33c-5.87,.27-9.87,1.2-13.38,2.56-3.62,1.41-6.7,3.29-9.76,6.36-3.06,3.06-4.95,6.14-6.36,9.76-1.36,3.51-2.3,7.51-2.56,13.38-.27,5.88-.33,7.76-.33,22.73s.06,16.85,.33,22.73c.27,5.87,1.2,9.87,2.56,13.38,1.41,3.62,3.29,6.7,6.36,9.76,3.06,3.06,6.14,4.95,9.76,6.36,3.51,1.36,7.51,2.29,13.38,2.56,5.88,.27,7.76,.33,22.73,.33s16.85-.06,22.73-.33c5.87-.27,9.87-1.2,13.38-2.56,3.62-1.41,6.7-3.29,9.76-6.36s4.95-6.14,6.36-9.76c1.36-3.51,2.29-7.51,2.56-13.38,.27-5.88,.33-7.76,.33-22.73Z" fill="#035587"/></g></svg>